<svg width="147" height="27" viewBox="0 0 147 27" fill="none" xmlns="http://www.w3.org/2000/svg">
<path d="M28.5199 17.9718C27.8239 20.9958 26.2879 23.2278 23.9119 24.6678C21.5359 26.0838 18.4879 26.7918 14.7679 26.7918C12.5119 26.7918 10.4959 26.4918 8.71994 25.8918C6.94394 25.2918 5.44394 24.4398 4.21994 23.3358C2.99594 22.2078 2.05994 20.8398 1.41194 19.2318C0.763941 17.6238 0.439941 15.8118 0.439941 13.7958V13.1478C0.439941 11.0598 0.763941 9.19981 1.41194 7.56781C2.05994 5.93581 2.99594 4.56781 4.21994 3.46381C5.44394 2.33581 6.94394 1.48381 8.71994 0.907814C10.4959 0.307813 12.5119 0.0078125 14.7679 0.0078125C16.6879 0.0078125 18.4279 0.199813 19.9879 0.583814C21.5719 0.967813 22.9399 1.55581 24.0919 2.34781C25.2679 3.11581 26.2279 4.08781 26.9719 5.26381C27.7159 6.43981 28.2079 7.81981 28.4479 9.40381H24.5599C24.3199 8.46781 23.9119 7.61581 23.3359 6.84781C22.7839 6.05581 22.0879 5.38381 21.2479 4.83181C20.4319 4.25581 19.4719 3.82381 18.3679 3.53581C17.2879 3.22381 16.0879 3.06781 14.7679 3.06781C13.0159 3.06781 11.4799 3.33181 10.1599 3.85981C8.83994 4.36381 7.73594 5.07181 6.84794 5.98381C5.95994 6.89581 5.28794 7.99981 4.83194 9.29581C4.39994 10.5678 4.18394 11.9718 4.18394 13.5078C4.18394 14.9718 4.39994 16.3278 4.83194 17.5758C5.28794 18.8238 5.95994 19.9038 6.84794 20.8158C7.73594 21.7278 8.83994 22.4478 10.1599 22.9758C11.4799 23.4798 13.0159 23.7318 14.7679 23.7318C17.4319 23.7318 19.6279 23.2278 21.3559 22.2198C23.1079 21.1878 24.2239 19.7718 24.7039 17.9718H28.5199Z" fill="#1041E3"/>
<path d="M49.3406 23.7318C48.3326 24.8838 47.0846 25.7118 45.5966 26.2158C44.1086 26.7198 42.4286 26.9718 40.5566 26.9718C39.1886 26.9718 37.9406 26.7918 36.8126 26.4318C35.6846 26.0958 34.7126 25.5678 33.8966 24.8478C33.1046 24.1278 32.4926 23.2278 32.0606 22.1478C31.6286 21.0678 31.4126 19.8078 31.4126 18.3678V6.91981H34.7606V17.2518C34.7606 17.8518 34.7846 18.5478 34.8326 19.3398C34.9046 20.1078 35.1206 20.8278 35.4806 21.4998C35.8646 22.1718 36.4526 22.7478 37.2446 23.2278C38.0606 23.6838 39.2126 23.9118 40.7006 23.9118C41.9006 23.9118 43.0046 23.7918 44.0126 23.5518C45.0206 23.2878 45.8846 22.8438 46.6046 22.2198C47.3486 21.5958 47.9246 20.7438 48.3326 19.6638C48.7646 18.5598 48.9926 17.1558 49.0166 15.4518V6.91981H52.3286V25.9998H49.0166L49.3406 23.7318Z" fill="#1041E3"/>
<path d="M69.0472 9.25981C67.8472 9.25981 66.7432 9.40381 65.7352 9.69181C64.7272 9.95581 63.8512 10.3758 63.1072 10.9518C62.3632 11.5278 61.7872 12.2838 61.3792 13.2198C60.9712 14.1318 60.7552 15.2478 60.7312 16.5678L60.6952 25.9998H57.3832V6.91981H60.7312L60.2992 9.79981C61.2832 8.64781 62.5192 7.78381 64.0072 7.20781C65.4952 6.60781 67.1752 6.30781 69.0472 6.30781H73.4032V9.25981H69.0472Z" fill="#1041E3"/>
<path d="M87.9613 9.25981C86.7613 9.25981 85.6573 9.40381 84.6493 9.69181C83.6413 9.95581 82.7653 10.3758 82.0213 10.9518C81.2773 11.5278 80.7013 12.2838 80.2933 13.2198C79.8853 14.1318 79.6693 15.2478 79.6453 16.5678L79.6093 25.9998H76.2973V6.91981H79.6453L79.2133 9.79981C80.1973 8.64781 81.4333 7.78381 82.9213 7.20781C84.4093 6.60781 86.0893 6.30781 87.9613 6.30781H92.3173V9.25981H87.9613Z" fill="#1041E3"/>
<path d="M119.259 22.8318V25.9998H95.2113V0.799813H118.071V3.96781H98.7393V10.7718H114.435V13.9398H98.7393V22.8318H119.259Z" fill="#1041E3"/>
<path d="M131.655 17.7558L125.319 25.9998H121.071L129.063 16.0278L121.863 6.91981H126.111L132.303 14.8038H135.759L141.843 6.91981H146.019L138.891 15.9918L146.883 25.9998H142.635L136.047 17.7558H131.655Z" fill="#1041E3"/>
</svg>
