<svg width="40" height="28" viewBox="0 0 40 28" fill="none" xmlns="http://www.w3.org/2000/svg">
<path d="M7.99782 10.0011C7.99782 9.47106 8.20857 8.96271 8.58371 8.5879C8.95885 8.2131 9.46766 8.00253 9.99819 8.00253H33.1824L28.5816 3.42576C28.2049 3.04942 27.9933 2.53899 27.9933 2.00677C27.9933 1.47454 28.2049 0.96411 28.5816 0.587768C28.9582 0.211427 29.4691 3.9654e-09 30.0018 0C30.5345 -3.9654e-09 31.0454 0.211427 31.4221 0.587768L39.4235 8.58212C39.7011 8.86317 39.8891 9.22006 39.9639 9.60777C40.0386 9.99547 39.9968 10.3966 39.8436 10.7606C39.6935 11.1256 39.4387 11.438 39.1112 11.6585C38.7837 11.879 38.3982 11.9977 38.0033 11.9997H9.99819C9.46766 11.9997 8.95885 11.7891 8.58371 11.4143C8.20857 11.0395 7.99782 10.5312 7.99782 10.0011ZM0.1564 17.236C0.306467 16.871 0.56131 16.5586 0.88881 16.3381C1.21631 16.1176 1.60181 15.9989 1.99673 15.9969H30.0018C30.5323 15.9969 31.0411 16.2074 31.4163 16.5823C31.7914 16.9571 32.0022 17.4654 32.0022 17.9955C32.0022 18.5255 31.7914 19.0339 31.4163 19.4087C31.0411 19.7835 30.5323 19.9941 30.0018 19.9941H6.81761L11.4184 24.5708C11.6059 24.7566 11.7548 24.9777 11.8563 25.2212C11.9579 25.4648 12.0101 25.726 12.0101 25.9898C12.0101 26.2537 11.9579 26.5149 11.8563 26.7584C11.7548 27.002 11.6059 27.223 11.4184 27.4088C11.2325 27.5961 11.0112 27.7448 10.7675 27.8463C10.5237 27.9478 10.2623 28 9.99819 28C9.73411 28 9.47265 27.9478 9.22889 27.8463C8.98513 27.7448 8.76389 27.5961 8.57793 27.4088L0.576478 19.4145C0.298912 19.1334 0.110885 18.7765 0.0361235 18.3888C-0.0386383 18.0011 0.0032132 17.6 0.1564 17.236Z" fill="#111111"/>
</svg>
