<svg width="28" height="28" viewBox="0 0 28 28" fill="none" xmlns="http://www.w3.org/2000/svg">
<path d="M19 10V8H15V5H13V8H11C10.4697 8.00053 9.96134 8.21141 9.58638 8.58637C9.21142 8.96133 9.00054 9.46973 9.00001 10V13C9.00054 13.5303 9.21142 14.0387 9.58638 14.4136C9.96134 14.7886 10.4697 14.9995 11 15H17V18H9.00001V20H13V23H15V20H17C17.5303 19.9995 18.0387 19.7886 18.4136 19.4136C18.7886 19.0387 18.9995 18.5303 19 18V15C18.9995 14.4697 18.7886 13.9613 18.4136 13.5864C18.0387 13.2114 17.5303 13.0005 17 13H11V10H19Z" fill="#111111"/>
<path d="M14 2C16.3734 2 18.6935 2.70379 20.6668 4.02236C22.6402 5.34094 24.1783 7.21509 25.0866 9.4078C25.9948 11.6005 26.2325 14.0133 25.7694 16.3411C25.3064 18.6689 24.1635 20.8071 22.4853 22.4853C20.8071 24.1635 18.6689 25.3064 16.3411 25.7694C14.0133 26.2324 11.6005 25.9948 9.40781 25.0866C7.21509 24.1783 5.34095 22.6402 4.02237 20.6668C2.70379 18.6935 2.00001 16.3734 2.00001 14C2.00924 10.8202 3.27649 7.77336 5.52493 5.52492C7.77336 3.27648 10.8202 2.00923 14 2ZM14 0C11.2311 0 8.52431 0.821086 6.22202 2.35943C3.91973 3.89777 2.12532 6.08427 1.06569 8.64243C0.00606596 11.2006 -0.271181 14.0155 0.269012 16.7313C0.809205 19.447 2.14258 21.9416 4.10051 23.8995C6.05845 25.8574 8.55301 27.1908 11.2687 27.731C13.9845 28.2712 16.7994 27.9939 19.3576 26.9343C21.9157 25.8747 24.1022 24.0803 25.6406 21.778C27.1789 19.4757 28 16.7689 28 14C27.9892 10.2903 26.5107 6.73562 23.8876 4.11245C21.2644 1.48929 17.7097 0.0108167 14 0Z" fill="#111111"/>
</svg>
